<?xml version="1.0" encoding="UTF-8" standalone="no"?>
<!-- Generator: Adobe Illustrator 16.0.0, SVG Export Plug-In . SVG Version: 6.00 Build 0)  -->

<svg
   xmlns:dc="http://purl.org/dc/elements/1.1/"
   xmlns:cc="http://creativecommons.org/ns#"
   xmlns:rdf="http://www.w3.org/1999/02/22-rdf-syntax-ns#"
   xmlns:svg="http://www.w3.org/2000/svg"
   xmlns="http://www.w3.org/2000/svg"
   xmlns:sodipodi="http://sodipodi.sourceforge.net/DTD/sodipodi-0.dtd"
   xmlns:inkscape="http://www.inkscape.org/namespaces/inkscape"
   version="1.1"
   id="Layer_1"
   x="0px"
   y="0px"
   width="1342.92"
   height="1100.45"
   viewBox="0 0 1342.9201 1100.45"
   enable-background="new 0 0 1000 1000"
   xml:space="preserve"
   inkscape:version="0.48.4 r9939"
   sodipodi:docname="Copy of Color.svg"><metadata
   id="metadata31"><rdf:RDF><cc:Work
       rdf:about=""><dc:format>image/svg+xml</dc:format><dc:type
         rdf:resource="http://purl.org/dc/dcmitype/StillImage" /><dc:title></dc:title></cc:Work></rdf:RDF></metadata><defs
   id="defs29">
	
	
</defs><sodipodi:namedview
   pagecolor="#ffffff"
   bordercolor="#666666"
   borderopacity="1"
   objecttolerance="10"
   gridtolerance="10"
   guidetolerance="10"
   inkscape:pageopacity="0"
   inkscape:pageshadow="2"
   inkscape:window-width="1366"
   inkscape:window-height="705"
   id="namedview27"
   showgrid="false"
   inkscape:zoom="0.44"
   inkscape:cx="559.06896"
   inkscape:cy="575.10957"
   inkscape:window-x="-8"
   inkscape:window-y="-8"
   inkscape:window-maximized="1"
   inkscape:current-layer="Layer_1" />
<g
   id="g5"
   transform="translate(343.2341,-0.28544279)">
		<path
   style="fill:#990000;fill-rule:evenodd"
   inkscape:connector-curvature="0"
   id="path7"
   d="m 58.922,739.282 c 40.913,58.864 100.616,103.792 170.627,125.955 3.433,-3.197 6.841,-6.419 10.176,-9.724 8.166,-8.081 15.984,-16.513 23.962,-24.778 6.2,-6.425 12.517,-12.752 18.605,-19.289 6.099,-6.539 11.966,-13.287 17.954,-19.916 4.367,-4.842 8.776,-9.644 13.156,-14.468 3.205,-3.536 6.428,-7.044 9.575,-10.623 8.544,-9.705 17.543,-19.071 25.431,-29.295 6.173,-7.989 14.016,-14.026 21.075,-20.975 4.667,-4.579 9.061,-9.441 13.75,-13.994 4.692,-4.557 9.62,-8.862 14.417,-13.315 3.183,-2.956 6.395,-5.909 9.459,-8.999 6.848,-6.888 13.519,-13.966 20.438,-20.792 2.776,-2.734 5.604,-5.425 8.43,-8.117 1.758,-3.552 3.484,-7.115 5.243,-10.672 2.104,-4.26 4.217,-8.507 6.348,-12.752 4.788,-9.525 9.544,-19.07 14.405,-28.572 4.227,-8.256 8.737,-16.383 12.855,-24.693 4.657,-9.379 8.992,-18.922 13.534,-28.35 3.177,-6.607 6.483,-13.148 9.71,-19.732 5.654,-11.572 11.279,-23.157 16.927,-34.734 4.618,-9.445 9.258,-18.863 13.849,-28.325 9.539,-19.666 19.051,-39.351 28.561,-59.024 9.271,-19.18 18.503,-38.38 27.817,-57.532 C 526.428,273.267 436.775,225.574 335.474,223.534 154.067,219.876 4.041,363.973 0.384,545.38 c -1.423,70.617 19.55,136.479 56.391,190.796 1.01,0.934 1.703,1.957 2.147,3.106 z"
   clip-rule="evenodd" />
		<path
   style="fill:#990000;fill-rule:evenodd"
   inkscape:connector-curvature="0"
   id="path9"
   d="m 298.947,858.719 c -2.139,1.752 -4.28,3.507 -6.409,5.275 -5.042,4.17 -10.054,8.379 -15.127,12.505 0.618,0.096 1.235,0.21 1.854,0.301 6.822,-5.738 13.399,-11.748 19.682,-18.081 z"
   clip-rule="evenodd" />
		<path
   style="fill:#990000;fill-rule:evenodd"
   inkscape:connector-curvature="0"
   id="path11"
   d="m 569.93,435.403 c -3.107,8.414 -6.2,16.835 -9.304,25.252 1.496,-2.667 2.995,-5.336 4.489,-8.004 7.309,-13.031 14.686,-26.024 21.831,-39.155 6.655,-12.203 13.264,-24.434 19.872,-36.66 -3.118,-4.946 -6.367,-9.802 -9.737,-14.566 -4.158,11.168 -8.269,22.353 -12.433,33.517 -4.917,13.2 -9.83,26.405 -14.718,39.616 z"
   clip-rule="evenodd" />
		<path
   style="fill:#990000;fill-rule:evenodd"
   inkscape:connector-curvature="0"
   id="path13"
   d="m 636.076,455.213 c 1.742,-1.639 3.516,-3.243 5.263,-4.875 -0.538,-1.663 -1.077,-3.332 -1.641,-4.984 -2.574,4.59 -5.142,9.185 -7.729,13.768 1.374,-1.3 2.735,-2.61 4.107,-3.909 z"
   clip-rule="evenodd" />
		<path
   style="fill:#990000;fill-rule:evenodd"
   inkscape:connector-curvature="0"
   id="path15"
   d="m 602.242,521.378 c -6.594,7.988 -13.271,15.908 -19.939,23.845 -0.921,1.514 -1.854,3.017 -2.747,4.546 -3.372,5.814 -6.577,11.748 -9.892,17.613 -2.146,3.798 -4.266,7.624 -6.547,11.355 -3.844,6.268 -7.869,12.427 -11.68,18.716 -2.875,4.739 -5.397,9.693 -8.306,14.411 -4.384,7.093 -8.889,14.123 -13.517,21.063 -3.945,5.934 -8.138,11.714 -12.223,17.551 -2.963,4.238 -5.872,8.516 -8.91,12.696 -6.435,8.857 -12.978,17.644 -19.412,26.501 -2.158,2.976 -4.29,5.973 -6.428,8.972 -3.943,7.25 -7.978,14.465 -11.97,21.711 -3.16,5.731 -6.133,11.588 -9.523,17.189 -3.611,5.943 -7.567,11.693 -11.462,17.47 -3.145,4.667 -6.36,9.278 -9.584,13.896 -0.405,0.766 -0.812,1.53 -1.221,2.298 -2.323,4.381 -4.829,8.659 -7.232,12.994 -6.148,11.095 -12.092,22.312 -18.469,33.278 -6.883,11.82 -14.167,23.409 -21.271,35.103 -4.531,7.465 -8.949,15.003 -13.605,22.387 -0.435,0.687 -0.889,1.359 -1.324,2.049 155.92,-22.892 277.066,-155.617 280.344,-318.399 0.636,-31.399 -3.161,-61.848 -10.805,-90.769 -1.904,2.175 -3.832,4.329 -5.707,6.526 -13.205,15.372 -25.667,31.367 -38.57,46.998 z"
   clip-rule="evenodd" />
	</g><g
   id="g17"
   transform="translate(343.2341,-0.28544279)">
		<path
   style="fill:#333333;fill-rule:evenodd"
   inkscape:connector-curvature="0"
   id="path19"
   d="m 607.865,333.734 c 9.781,-25.246 19.627,-50.47 30.062,-75.443 5.296,-12.664 10.298,-25.668 19.752,-36.282 -2.603,1.479 -5.315,2.976 -7.01,5.237 -4.177,5.573 -8.222,11.303 -11.702,17.326 -7.383,12.744 -14.541,25.625 -21.481,38.618 -7.979,14.925 -15.863,29.904 -23.351,45.075 -3.006,6.084 -5.941,12.199 -8.908,18.299 4.099,5.114 8.059,10.349 11.854,15.705 3.541,-9.534 7.112,-19.052 10.784,-28.535 z"
   clip-rule="evenodd" />
		<path
   style="fill:#333333;fill-rule:evenodd"
   inkscape:connector-curvature="0"
   id="path21"
   d="m 681.22,429.43 c 13.163,-14.504 26.659,-28.672 42.296,-40.567 5.117,-3.892 10.266,-8.421 18.335,-5.275 -2.977,-4.624 -6.855,-3.793 -9.997,-2.855 -4.52,1.349 -8.991,3.296 -13.064,5.693 -14.504,8.524 -27.536,19.115 -40.163,30.132 -12.63,11.029 -25.036,22.323 -37.287,33.781 1.879,5.772 3.618,11.608 5.181,17.517 11.375,-12.974 23.113,-25.642 34.699,-38.426 z"
   clip-rule="evenodd" />
		<path
   style="fill:#333333;fill-rule:evenodd"
   inkscape:connector-curvature="0"
   id="path23"
   d="m 997.283,3.782 c -9.537,-3.835 -19.502,-3.998 -29.484,-2.927 -10.229,1.103 -19.686,4.974 -28.938,9.289 -19.385,9.053 -35.745,22.516 -51.909,36.177 -24.639,20.825 -45.387,45.423 -66.286,69.798 -13.73,16.015 -26.673,32.721 -39.616,49.395 -12.922,16.648 -25.624,33.475 -38.003,50.531 -12.716,17.534 -24.937,35.435 -37.385,53.178 -7.976,11.387 -16.043,22.725 -23.931,34.18 -7.328,10.633 -14.438,21.406 -21.695,32.084 -5.554,8.156 -11.164,16.271 -16.721,24.416 3.713,-8.381 7.446,-16.756 11.143,-25.142 11.095,-25.112 22.059,-50.271 33.225,-75.347 6.562,-14.718 13.243,-29.386 20.157,-43.938 8.211,-17.269 16.48,-34.522 25.245,-51.509 4.275,-8.274 9.343,-16.23 14.816,-23.772 4.653,-6.414 6.264,-5.907 9.231,1.177 0.097,0.213 0.429,0.329 0.864,0.64 0.02,-0.777 0.142,-1.377 0.021,-1.928 -1.615,-7.395 -4.933,-8.564 -10.543,-3.526 -2.8,2.517 -5.515,5.215 -7.808,8.182 -4.014,5.208 -7.991,10.493 -11.427,16.089 -11.153,18.182 -22.356,36.354 -32.991,54.847 -10.327,17.963 -19.938,36.331 -29.937,54.482 -10.177,18.462 -20.542,36.812 -30.636,55.317 -9.332,17.095 -18.594,34.229 -27.857,51.362 13.464,21.328 24.562,44.284 32.88,68.518 3.663,-6.536 7.337,-13.065 10.999,-19.602 4.179,-7.447 8.274,-14.941 12.509,-22.362 3.845,-6.73 7.822,-13.385 11.727,-20.081 5.108,-8.758 10.261,-17.498 15.303,-26.294 5.535,-9.641 10.917,-19.369 16.478,-28.996 5.775,-10.003 11.668,-19.94 17.544,-29.882 5.668,-9.578 11.294,-19.188 17.12,-28.667 6.049,-9.83 12.338,-19.517 18.488,-29.278 12.066,-19.128 23.96,-38.372 36.241,-57.364 8.409,-13.018 17.207,-25.8 26.121,-38.49 8.692,-12.391 17.235,-24.946 26.76,-36.686 15.334,-18.888 30.66,-37.8 47.812,-55.161 14.652,-14.835 30.277,-28.336 48.437,-38.678 12.674,-7.216 26.093,-12.057 41.017,-10.703 4.274,0.389 8.494,1.373 13.432,2.195 -1.175,-0.75 -1.744,-1.258 -2.403,-1.524 z"
   clip-rule="evenodd" />
		<path
   style="fill:#333333;fill-rule:evenodd"
   inkscape:connector-curvature="0"
   id="path25"
   d="m 279.266,876.8 c -6.157,5.181 -12.517,10.143 -19.089,14.857 -3.556,2.559 -7.256,4.815 -11.054,6.865 8.157,-6.042 16.154,-12.312 24.118,-18.62 1.406,-1.116 2.777,-2.265 4.17,-3.403 -16.401,-2.577 -32.38,-6.36 -47.862,-11.262 -4.119,3.841 -8.276,7.651 -12.446,11.438 -11.593,10.524 -23.533,20.608 -36.157,29.955 -5.676,4.191 -11.537,7.961 -17.604,11.287 -1.635,-0.119 -3.272,-0.271 -4.918,-0.468 -4.688,-7.319 -9.008,-14.873 -13.231,-22.477 -6.086,-10.963 -12.18,-21.982 -17.273,-33.432 -6.716,-15.084 -12.455,-30.618 -18.612,-45.95 -1.957,-4.863 -3.917,-9.741 -5.872,-14.611 -0.298,0.1 -0.591,0.189 -0.886,0.283 1.435,6.362 2.706,12.763 4.336,19.071 5.134,19.863 10.673,39.614 18.201,58.722 4.372,11.101 8.663,22.263 13.723,33.043 0.185,0.4 0.398,0.779 0.587,1.177 -12.389,-4.118 -23.379,-10.818 -33.136,-20.154 -11.75,-11.248 -19.521,-25.062 -25.91,-39.785 -3.18,-7.334 -5.833,-14.793 -8.12,-22.362 1.362,-10.195 3.117,-20.323 5.16,-30.424 1.302,-6.431 2.657,-12.842 3.986,-19.27 -1.926,2.119 -3,4.451 -3.878,6.854 -3.414,9.348 -6.478,18.803 -9.16,28.348 -2.544,-10.826 -4.412,-21.825 -5.762,-32.936 -1.635,-13.428 -2.118,-26.998 -2.907,-40.508 -0.081,-1.391 -0.306,-2.627 -0.747,-3.756 -0.719,-1.033 -1.441,-2.06 -2.147,-3.106 -0.449,-0.405 -0.938,-0.815 -1.527,-1.184 -1.531,13.964 -1.885,27.437 -1.265,41.03 0.701,15.337 1.617,30.612 4.002,45.784 1.096,6.967 2.477,13.853 4.179,20.635 -0.774,4.007 -1.499,8.033 -2.106,12.082 -0.016,0.097 -0.027,0.204 -0.043,0.298 -9.713,-27.654 -15.151,-56.471 -17.911,-85.927 -1.224,-13.053 -1.966,-26.146 -2.928,-39.217 -1.868,21.407 -2.517,42.942 -0.87,64.486 1.706,22.237 4.407,44.265 9.929,66.025 2.535,9.995 5.713,19.678 9.548,29.068 0.322,6.859 1.21,13.706 2.877,20.535 5.083,20.813 16.524,36.092 37.86,42.357 1.967,0.577 3.946,1.05 5.932,1.442 4.723,3.457 9.738,6.61 15.109,9.397 17.537,9.078 36.394,12.332 55.741,12.973 2.149,0.067 4.292,0.057 6.435,0.011 15.787,15.055 34.246,24.263 57.562,23.718 16.218,-0.376 30.441,-5.846 43.77,-14.081 10.301,-6.357 19.628,-14.084 28.269,-22.702 11.99,-11.938 22.831,-24.815 32.888,-38.364 7.229,-9.732 14.074,-19.748 20.955,-29.727 4.042,-5.857 7.972,-11.797 11.801,-17.795 -17.84,2.621 -36.126,3.831 -54.747,3.453 -14.585,-0.29 -28.925,-1.549 -42.97,-3.673 z M 112.561,932.71 C 93.986,920.163 81.115,902.741 71.619,882.94 c -0.328,-0.681 -0.627,-1.368 -0.949,-2.051 -0.507,-4.947 -0.81,-9.903 -0.899,-14.875 1.73,4.282 3.63,8.514 5.758,12.671 8.854,17.269 20.455,32.273 36.57,43.474 5.062,3.521 10.307,6.479 15.703,8.954 -5.006,1.075 -10.079,1.777 -15.241,1.597 z m 70.096,15.474 c -1.621,-1.654 -3.204,-3.333 -4.757,-5.06 0.93,-0.467 1.851,-0.949 2.772,-1.428 15.897,0.041 31.607,-2.041 47.215,-5.455 -9.876,4.282 -20.175,7.239 -30.759,9.496 -4.816,1.019 -9.635,1.851 -14.471,2.447 z m 70.47,20.337 c -8.379,4.154 -17.273,6.65 -26.594,5.355 -3.088,-0.437 -6.082,-1.153 -9.003,-2.069 20.2,-3.757 38.799,-11.09 56.069,-22.107 4.091,-2.61 8.084,-5.389 12.019,-8.235 -9.235,10.918 -19.465,20.593 -32.491,27.056 z"
   clip-rule="evenodd" />
	</g>
</svg>